<?xml version="1.0" encoding="UTF-8"?>
<svg width="53" height="32" viewBox="0 0 53 32" xmlns="http://www.w3.org/2000/svg">
    <path id="Shape" fill="#ffffff" fill-rule="evenodd" stroke="none"
        d="M 12.405717 6.845589 C 5.499894 6.767189 3.176218 6.688965 2.786634 6.621176 C 2.397064 6.5534 1.780429 6.200047 1.416346 5.835978 C 1.04619 5.465807 0.687761 4.81888 0.60325 4.368401 C 0.51754 3.911526 0.560139 3.270683 0.701656 2.888006 C 0.838904 2.51688 1.25213 1.94026 1.619943 1.606617 C 2.288695 1 2.288695 1 17.502323 1 C 32.715965 1 32.715965 1 33.373852 1.606617 C 33.735699 1.94026 37.126976 7.573526 40.910015 14.125 C 44.693054 20.676474 47.992939 26.510954 48.243065 27.090509 C 48.663616 28.064955 48.673607 28.213835 48.375816 29.068615 C 48.169498 29.660866 47.784492 30.173872 47.304272 30.496487 C 46.826046 30.817743 46.22718 30.999704 45.64986 30.999178 C 45.152164 30.99872 44.447182 30.815939 44.083206 30.592995 C 43.627163 30.313637 42.805775 29.113005 41.441021 26.730816 L 39.460598 23.274014 L 31.542526 23.331867 L 23.624481 23.389706 L 21.789253 26.588236 C 20.779884 28.347422 19.648993 30.05974 19.276157 30.393383 C 18.728106 30.88385 18.387154 31 17.49559 31 C 16.554832 31 16.275839 30.892721 15.595683 30.269409 C 14.931952 29.661148 14.782156 29.356413 14.700997 28.449556 C 14.605729 27.385189 14.674367 27.237991 17.703981 22.00909 C 19.409231 19.065941 22.092482 14.425306 23.666702 11.69659 L 26.528992 6.735294 L 22.842863 6.739428 L 19.156734 6.743547 L 12.428793 18.455498 C 7.355021 27.287888 5.538144 30.269585 5.039087 30.582897 C 4.633388 30.837587 3.973225 30.998667 3.333002 30.999178 C 2.502242 30.999825 2.151945 30.875946 1.619943 30.393383 C 1.25213 30.05974 0.832482 29.466101 0.687384 29.074188 C 0.492821 28.548635 0.485645 28.143339 0.660039 27.530071 C 0.790098 27.072723 3.48607 22.231617 6.651116 16.772058 L 12.405717 6.845589 Z M 27.009724 17.544117 C 34.030285 17.544117 36.035423 17.460159 35.99498 17.357538 C 35.954533 17.254919 34.97842 15.521057 33.825851 13.504515 C 32.673283 11.487972 31.656538 9.859625 31.566412 9.885946 C 31.476286 9.912281 30.414167 11.646143 29.206156 13.73897 L 27.009724 17.544117 Z M 47.157089 10.836721 C 46.922337 10.897699 46.572712 10.818762 46.380127 10.661304 C 46.187546 10.503834 45.057327 8.687494 43.868515 6.625 C 42.679703 4.562506 41.602531 2.609982 41.474758 2.28606 C 41.300217 1.843523 41.314381 1.610495 41.531765 1.34856 C 41.780251 1.049156 42.544472 1 46.950851 1 C 51.357231 1 52.121456 1.049156 52.369938 1.34856 C 52.588402 1.611788 52.601704 1.84133 52.424252 2.28606 C 52.295029 2.609982 51.228195 4.512865 50.053493 6.514706 C 48.878792 8.516546 47.842602 10.28299 47.750809 10.440138 C 47.659012 10.597271 47.391842 10.775745 47.157089 10.836721 Z" />
</svg>
